<svg id="Group_20121" data-name="Group 20121" xmlns="http://www.w3.org/2000/svg" width="24" height="24" viewBox="0 0 24 24">
  <path id="Path_13692" data-name="Path 13692" d="M0,0H24V24H0Z" fill="none"/>
  <line id="Line_605" data-name="Line 605" y2="2" transform="translate(15 5)" fill="none" stroke="#000" stroke-linecap="round" stroke-linejoin="round" stroke-width="1.5"/>
  <line id="Line_606" data-name="Line 606" y2="2" transform="translate(15 11)" fill="none" stroke="#000" stroke-linecap="round" stroke-linejoin="round" stroke-width="1.5"/>
  <line id="Line_607" data-name="Line 607" y2="2" transform="translate(15 17)" fill="none" stroke="#000" stroke-linecap="round" stroke-linejoin="round" stroke-width="1.5"/>
  <path id="Path_13693" data-name="Path 13693" d="M5,5H19a2,2,0,0,1,2,2v3a2,2,0,0,0,0,4v3a2,2,0,0,1-2,2H5a2,2,0,0,1-2-2V14a2,2,0,0,0,0-4V7A2,2,0,0,1,5,5" fill="none" stroke="#000" stroke-linecap="round" stroke-linejoin="round" stroke-width="1.5"/>
</svg>
