<?xml version="1.0" standalone="no"?>
<!DOCTYPE svg PUBLIC "-//W3C//DTD SVG 20010904//EN"
 "http://www.w3.org/TR/2001/REC-SVG-20010904/DTD/svg10.dtd">
<svg version="1.0" xmlns="http://www.w3.org/2000/svg"
 width="1024.000000pt" height="916.000000pt" viewBox="0 0 1024.000000 916.000000"
 preserveAspectRatio="xMidYMid meet">

<g transform="translate(0.000000,916.000000) scale(0.100000,-0.100000)"
fill="#000000" stroke="none">
<path d="M5090 8627 l0 -224 149 -6 c848 -37 1673 -380 2290 -952 l104 -97
158 158 c153 152 158 159 141 177 -9 11 -68 65 -130 120 -427 381 -893 653
-1425 832 -254 85 -518 147 -772 179 -128 17 -376 36 -462 36 l-53 0 0 -223z"/>
<path d="M4670 7636 c-15 -19 -9 -56 11 -69 41 -26 91 22 68 65 -12 22 -61 24
-79 4z"/>
<path d="M5410 7630 c-6 -12 -8 -30 -5 -40 7 -24 52 -37 74 -23 20 13 26 50
11 69 -19 21 -67 18 -80 -6z"/>
<path d="M3948 7434 c-17 -36 0 -59 43 -59 28 0 35 5 44 28 8 24 6 31 -10 43
-30 22 -64 17 -77 -12z"/>
<path d="M6135 7446 c-29 -21 -10 -70 28 -74 50 -6 75 38 41 72 -19 20 -44 20
-69 2z"/>
<path d="M5090 6981 l0 -201 59 0 c73 0 271 -25 364 -46 38 -9 70 -14 72 -12
7 7 104 372 100 376 -18 18 -326 67 -487 77 l-108 7 0 -201z"/>
<path d="M4795 7159 c-85 -11 -305 -55 -312 -63 -4 -4 81 -351 91 -373 1 -1
28 5 61 13 98 22 270 44 355 44 l80 0 0 195 0 195 -102 -1 c-57 -1 -134 -6
-173 -10z"/>
<path d="M8220 7113 c-41 -30 -82 -58 -90 -63 -11 -7 -12 -12 -3 -21 9 -9 18
-7 41 10 35 24 72 28 72 6 0 -8 -9 -38 -19 -66 -20 -51 -20 -51 1 -79 l21 -28
63 41 c35 23 64 48 64 55 0 19 -10 15 -75 -28 -33 -22 -61 -36 -63 -31 -4 13
45 136 54 135 5 -1 34 -5 64 -9 49 -7 53 -6 42 8 -8 9 -45 21 -88 28 l-74 12
45 32 c35 25 43 34 33 43 -10 7 -32 -4 -88 -45z"/>
<path d="M3312 7078 c-20 -20 -14 -66 9 -79 33 -17 69 3 69 39 0 33 -16 52
-45 52 -12 0 -26 -5 -33 -12z"/>
<path d="M4300 7042 c-121 -43 -400 -168 -400 -180 0 -10 182 -322 191 -328 5
-3 29 6 52 19 62 36 248 114 331 139 l72 21 -50 188 c-28 104 -53 189 -56 188
-3 0 -66 -21 -140 -47z"/>
<path d="M5706 7073 c-18 -58 -95 -357 -93 -360 2 -1 56 -21 121 -43 65 -22
167 -65 227 -95 l109 -55 14 23 c31 48 186 320 184 322 -17 15 -238 117 -323
150 -95 37 -212 75 -228 75 -3 0 -8 -8 -11 -17z"/>
<path d="M6782 7078 c-20 -20 -14 -66 9 -79 33 -17 69 3 69 39 0 33 -16 52
-45 52 -12 0 -26 -5 -33 -12z"/>
<path d="M1850 7053 c0 -10 -9 -24 -20 -31 -50 -31 -2 -122 65 -122 32 0 65
25 65 50 0 10 3 10 15 0 26 -21 13 -59 -20 -64 -26 -4 -31 -26 -6 -26 33 0 63
36 59 73 -3 31 -46 72 -127 120 -30 18 -31 17 -31 0z m50 -48 c33 -17 47 -50
30 -70 -18 -22 -48 -18 -75 10 -29 28 -31 38 -9 59 19 19 18 19 54 1z"/>
<path d="M8385 7001 c-3 -5 -1 -12 5 -16 12 -7 30 2 30 16 0 12 -27 12 -35 0z"/>
<path d="M8357 6894 c-48 -31 -87 -62 -87 -70 0 -18 10 -13 114 54 87 56 82
50 70 62 -7 7 -39 -8 -97 -46z"/>
<path d="M1746 6894 c-9 -8 -16 -27 -16 -40 0 -14 -4 -23 -9 -19 -5 3 -12 1
-15 -4 -9 -14 123 -96 135 -84 7 7 -6 21 -41 42 -44 27 -51 36 -48 59 4 38 30
39 88 3 30 -19 52 -26 56 -20 7 12 10 10 -50 48 -56 35 -77 38 -100 15z"/>
<path d="M8360 6835 c-30 -19 -59 -36 -64 -38 -5 -2 -6 -9 -2 -15 5 -9 20 -6
56 14 53 29 84 29 88 -1 2 -15 -10 -27 -48 -48 -27 -16 -50 -32 -50 -36 0 -20
16 -18 56 5 50 29 89 29 89 -1 0 -13 -17 -29 -52 -49 -33 -19 -49 -34 -46 -43
4 -11 16 -8 52 13 88 51 101 77 56 112 -14 11 -25 29 -25 41 0 12 -9 30 -20
41 -11 11 -20 23 -19 27 1 17 -19 11 -71 -22z"/>
<path d="M6190 6683 c-52 -92 -96 -169 -97 -172 -1 -3 23 -21 54 -40 80 -49
240 -171 288 -220 21 -23 44 -41 50 -41 5 0 72 62 147 138 l138 137 -68 60
c-103 93 -197 167 -307 239 -54 36 -102 66 -105 66 -3 -1 -48 -76 -100 -167z"/>
<path d="M3750 6769 c-112 -76 -162 -115 -278 -218 l-74 -64 138 -138 138
-138 57 54 c88 81 153 129 328 242 7 4 -184 332 -194 333 -5 0 -57 -32 -115
-71z"/>
<path d="M1622 6806 c1 -10 8 -17 13 -17 15 1 12 24 -3 29 -9 3 -13 -2 -10
-12z"/>
<path d="M1670 6778 c0 -12 115 -88 133 -88 34 0 -47 63 -125 98 -5 2 -8 -3
-8 -10z"/>
<path d="M4910 6753 c-73 -7 -237 -34 -281 -46 l-46 -12 103 -385 c56 -212
108 -401 113 -421 l11 -36 67 13 c38 7 96 13 131 14 l62 0 0 440 0 440 -62 -2
c-35 0 -79 -3 -98 -5z"/>
<path d="M5090 6320 l0 -440 44 0 c24 0 83 -7 131 -15 48 -9 89 -14 90 -13 8
10 225 841 221 845 -20 20 -302 63 -411 63 l-75 0 0 -440z"/>
<path d="M1645 6731 c-5 -8 8 -29 36 -57 23 -24 41 -45 38 -48 -2 -2 -30 1
-61 7 -53 9 -80 6 -65 -9 3 -3 38 -12 78 -20 109 -21 114 -8 35 80 -37 41 -55
55 -61 47z"/>
<path d="M4425 6646 c-122 -43 -315 -133 -315 -147 0 -10 409 -720 425 -737
10 -11 23 -8 71 16 33 16 85 38 117 48 32 10 56 23 54 28 -2 6 -53 193 -112
416 -59 223 -111 408 -114 412 -3 3 -60 -13 -126 -36z"/>
<path d="M5492 6273 c-62 -230 -112 -421 -112 -424 0 -4 28 -17 63 -29 34 -12
88 -36 119 -51 l58 -29 14 22 c8 13 107 184 221 382 160 277 204 361 193 368
-60 40 -338 156 -414 172 l-30 7 -112 -418z"/>
<path d="M8510 6640 c0 -6 8 -14 18 -17 21 -8 32 -23 32 -45 0 -28 -18 -21
-56 18 -32 34 -35 36 -56 22 -32 -21 -34 -53 -6 -81 13 -12 23 -31 23 -42 0
-10 6 -20 13 -22 6 -3 12 1 12 9 0 7 21 24 48 38 55 29 65 61 32 103 -21 26
-60 37 -60 17z m-10 -67 c17 -22 19 -28 6 -35 -29 -16 -69 24 -51 52 10 16 22
12 45 -17z"/>
<path d="M1580 6587 c-13 -7 -29 -25 -34 -39 -29 -81 104 -143 144 -68 14 27
9 72 -9 78 -11 4 -12 -2 -7 -23 8 -32 -15 -65 -46 -65 -17 0 -16 4 8 51 14 28
22 55 17 59 -17 16 -49 19 -73 7z m50 -22 c0 -16 -36 -75 -44 -72 -16 5 -19
46 -6 63 11 13 50 20 50 9z"/>
<path d="M2782 6548 c-7 -7 -12 -21 -12 -33 0 -29 19 -45 52 -45 36 0 56 36
39 69 -13 23 -59 29 -79 9z"/>
<path d="M7299 6539 c-18 -34 3 -69 41 -69 22 0 33 6 41 24 16 35 -3 66 -41
66 -20 0 -33 -7 -41 -21z"/>
<path d="M8586 6501 c-3 -5 5 -16 19 -25 16 -10 25 -26 25 -41 0 -34 -13 -31
-44 10 -33 43 -71 47 -88 10 -9 -19 -8 -29 6 -50 9 -14 20 -25 25 -25 4 0 7
-10 7 -21 -1 -12 5 -24 12 -26 6 -3 12 1 12 9 0 7 23 23 50 35 45 19 50 25 50
53 0 44 -57 99 -74 71z m-12 -76 c16 -24 16 -26 0 -32 -22 -8 -48 9 -52 36 -5
30 31 28 52 -4z"/>
<path d="M6027 6398 c-30 -51 -123 -212 -207 -358 -84 -146 -158 -275 -166
-287 -13 -20 -10 -24 54 -70 37 -26 84 -63 105 -82 l38 -35 310 310 c170 170
308 313 306 319 -6 18 -170 154 -257 214 -138 94 -120 95 -183 -11z"/>
<path d="M1440 6471 c0 -17 192 -103 204 -91 6 6 -22 25 -87 55 -100 46 -117
52 -117 36z"/>
<path d="M3980 6425 c-91 -62 -209 -155 -255 -204 l-29 -32 306 -305 305 -306
75 58 c41 33 87 68 102 79 l27 20 -214 369 c-118 204 -218 371 -224 373 -5 2
-47 -22 -93 -52z"/>
<path d="M3296 6375 c-116 -133 -277 -356 -276 -382 1 -9 329 -198 333 -192
113 175 161 240 242 328 l54 57 -138 138 -138 138 -77 -87z"/>
<path d="M1460 6371 c-5 -11 -10 -29 -10 -40 0 -12 -5 -21 -11 -21 -28 0 3
-25 65 -51 78 -33 76 -33 76 -16 0 6 -24 23 -53 37 -56 27 -71 55 -42 76 14
11 26 9 71 -11 33 -15 56 -20 60 -14 8 13 7 14 -50 38 -60 26 -92 27 -106 2z"/>
<path d="M8679 6374 c-1 -5 -1 -12 -1 -15 1 -4 -23 -17 -54 -29 -61 -25 -68
-32 -59 -60 8 -25 25 -26 25 -2 1 20 96 67 105 51 10 -15 28 -10 22 5 -4 9 2
17 14 21 20 7 25 20 11 29 -4 2 -14 1 -22 -4 -9 -5 -19 -5 -27 2 -7 6 -14 7
-14 2z"/>
<path d="M6762 6253 c-12 -3 -38 -19 -57 -37 -29 -28 -35 -40 -35 -76 0 -41
31 -110 50 -110 5 0 11 -9 15 -19 10 -31 34 -33 83 -5 45 26 122 98 122 115 0
16 -62 100 -83 113 -27 17 -65 24 -95 19z m49 -32 c-8 -5 -20 -7 -28 -4 -21 8
-15 13 15 13 20 0 23 -3 13 -9z m49 -26 c11 -13 10 -14 -4 -9 -9 3 -16 10 -16
15 0 13 6 11 20 -6z m-82 -1 c12 -4 22 -13 22 -21 0 -12 -3 -13 -15 -3 -19 15
-38 3 -32 -21 3 -10 1 -22 -4 -25 -5 -3 -9 -1 -9 4 0 5 -3 24 -6 41 -7 33 -1
37 44 25z m-60 -99 l1 -30 -15 28 c-11 19 -13 38 -8 60 l8 32 7 -30 c4 -16 7
-43 7 -60z m172 30 c0 -35 -81 -99 -115 -91 -38 10 -31 29 8 22 26 -5 35 -2
45 14 7 11 10 31 6 44 -4 17 0 27 12 34 25 14 44 4 44 -23z"/>
<path d="M1410 6230 c-30 -30 -26 -73 11 -104 35 -29 65 -33 96 -11 26 19 39
70 23 90 -20 24 -30 17 -24 -15 7 -34 -9 -60 -37 -60 -18 0 -18 2 2 52 16 41
17 53 7 59 -23 15 -57 10 -78 -11z m60 -15 c0 -11 -29 -75 -34 -75 -15 0 -26
41 -16 60 9 17 50 29 50 15z"/>
<path d="M8748 6194 c-12 -12 -20 -14 -36 -5 -30 16 -49 14 -72 -9 -26 -26
-25 -51 2 -86 14 -17 21 -39 20 -58 -2 -30 -2 -30 13 -12 8 11 15 23 15 28 0
4 14 8 30 8 32 0 43 26 14 32 -13 3 -13 5 -1 23 13 16 17 17 31 6 26 -22 66 1
66 37 0 49 -47 70 -82 36z m54 -46 c-8 -8 -18 -8 -33 -2 -21 10 -21 11 -4 28
16 16 19 16 34 2 11 -12 12 -19 3 -28z m-87 12 c10 -16 -23 -70 -40 -64 -17 7
-30 48 -20 63 8 14 52 14 60 1z"/>
<path d="M3609 6102 c-108 -116 -239 -306 -223 -322 5 -5 173 -104 374 -220
l365 -211 20 27 c11 15 46 61 79 102 l58 75 -303 303 c-167 167 -307 304 -310
304 -4 0 -31 -26 -60 -58z"/>
<path d="M1355 6084 c-9 -9 -15 -28 -13 -43 2 -15 -4 -33 -14 -43 -10 -10 -18
-28 -18 -41 0 -13 -5 -28 -11 -34 -13 -13 -8 -17 63 -37 32 -9 64 -19 73 -22
9 -4 15 -1 15 8 0 9 -22 21 -54 32 -38 11 -57 23 -61 37 -12 37 9 44 75 24 33
-10 63 -15 67 -11 10 10 -8 22 -52 36 -50 16 -65 27 -65 50 0 28 25 31 84 10
51 -17 66 -17 66 1 0 6 -119 49 -135 49 -2 0 -11 -7 -20 -16z"/>
<path d="M8803 5937 c-124 -70 -124 -85 -2 -89 l90 -3 -75 -45 c-42 -24 -76
-47 -76 -50 1 -24 22 -28 127 -23 92 5 110 8 106 20 -5 12 -23 14 -89 11 -46
-1 -84 -2 -84 -1 0 1 32 21 70 44 47 28 70 47 70 60 0 17 -8 19 -87 19 l-88 0
73 40 c39 23 72 47 72 55 0 22 -6 20 -107 -38z"/>
<path d="M2927 5823 c-55 -115 -164 -402 -155 -408 2 -1 87 -24 189 -51 l186
-50 21 72 c25 83 103 269 139 331 13 23 22 47 19 52 -6 9 -318 191 -328 191
-3 0 -34 -62 -71 -137z"/>
<path d="M2418 5909 c-22 -12 -23 -48 -4 -74 21 -29 70 -10 74 28 6 48 -29 71
-70 46z"/>
<path d="M7676 5899 c-16 -23 -12 -47 12 -66 21 -17 37 -16 56 3 31 30 9 84
-34 84 -10 0 -26 -10 -34 -21z"/>
<path d="M6425 5891 c-3 -6 -4 -15 -1 -20 4 -5 -4 -7 -15 -4 -19 5 -21 3 -17
-20 3 -17 1 -24 -5 -20 -7 4 -8 -1 -3 -12 7 -18 6 -18 -13 -1 -18 17 -21 17
-45 1 -14 -10 -26 -21 -26 -26 0 -5 -3 -8 -7 -8 -21 3 -32 -3 -37 -19 -3 -9
-16 -22 -28 -27 -15 -7 -22 -18 -21 -31 1 -12 -4 -21 -11 -21 -8 0 -13 5 -12
11 2 6 1 8 -1 4 -3 -5 -11 -8 -19 -8 -8 0 -14 -4 -14 -8 0 -4 -13 -16 -30 -25
-35 -21 -38 -36 -11 -59 18 -15 20 -15 36 2 11 12 13 20 6 25 -6 3 -11 14 -11
23 0 12 3 13 12 4 17 -17 38 -15 38 3 0 8 9 15 20 15 11 0 20 5 20 11 0 5 5 7
11 3 8 -5 8 -1 0 14 -17 32 -13 37 11 16 12 -10 18 -13 14 -6 -4 7 -1 12 8 12
22 0 29 19 14 38 -12 16 -11 16 6 2 15 -12 20 -12 23 -2 3 6 9 10 14 6 5 -3 9
0 9 5 0 6 5 11 12 11 19 0 78 44 78 58 0 7 5 10 10 7 7 -4 8 3 4 22 -8 35 -10
37 -19 24z m-140 -151 c3 -5 2 -10 -4 -10 -5 0 -13 5 -16 10 -3 6 -2 10 4 10
5 0 13 -4 16 -10z m-105 -81 c0 -6 -4 -7 -10 -4 -5 3 -10 11 -10 16 0 6 5 7
10 4 6 -3 10 -11 10 -16z m-60 -40 c0 -6 -4 -7 -10 -4 -5 3 -10 11 -10 16 0 6
5 7 10 4 6 -3 10 -11 10 -16z"/>
<path d="M1282 5847 c-19 -23 -26 -75 -12 -92 21 -25 29 -17 27 27 -2 33 2 43
16 46 14 3 17 -4 17 -46 0 -55 17 -78 50 -67 26 8 43 41 36 70 -3 13 -2 25 3
27 5 2 11 9 13 17 2 9 -8 14 -32 15 -19 1 -51 6 -71 10 -26 5 -38 4 -47 -7z
m108 -47 c8 -14 8 -26 0 -41 -16 -30 -35 -18 -38 24 -2 28 1 37 12 37 8 0 20
-9 26 -20z"/>
<path d="M6360 5846 c0 -9 5 -16 10 -16 6 0 10 4 10 9 0 6 -4 13 -10 16 -5 3
-10 -1 -10 -9z"/>
<path d="M7040 5756 c-41 -15 -80 -67 -80 -108 0 -33 35 -118 56 -134 27 -22
193 42 206 79 3 7 -6 41 -20 76 -22 55 -30 65 -66 82 -47 21 -50 22 -96 5z
m80 -26 c13 -8 13 -10 -2 -10 -9 0 -20 5 -23 10 -8 13 5 13 25 0z m-39 -20
c10 -6 19 -18 18 -28 0 -10 -3 -12 -6 -4 -8 20 -43 14 -43 -8 0 -11 -5 -20
-11 -20 -7 0 -9 9 -5 23 3 12 6 28 6 35 0 15 15 15 41 2z m89 -33 c0 -5 -4 -5
-10 -2 -5 3 -10 14 -10 23 0 15 2 15 10 2 5 -8 10 -19 10 -23z m-165 -32 c-3
-26 -9 -44 -12 -42 -7 8 -6 74 2 87 13 21 17 1 10 -45z m164 -4 c24 -15 -2
-58 -45 -76 -41 -17 -72 -19 -94 -5 -23 14 -3 24 25 12 34 -16 65 3 65 40 0
23 10 34 30 37 3 0 11 -3 19 -8z"/>
<path d="M3302 5648 c-65 -133 -136 -337 -119 -343 6 -2 190 -52 407 -110 217
-58 402 -108 411 -110 11 -4 20 9 33 52 10 32 32 84 48 117 24 48 27 61 16 71
-17 16 -727 425 -737 425 -5 0 -31 -46 -59 -102z"/>
<path d="M1190 5700 c-41 -41 -38 -114 5 -130 36 -14 51 -4 85 56 31 56 48 65
70 39 19 -23 0 -77 -33 -93 -34 -16 -35 -32 -3 -32 57 0 89 107 46 150 -36 36
-70 18 -110 -60 -11 -22 -24 -40 -28 -40 -39 1 -43 78 -4 95 25 11 30 35 7 35
-8 0 -24 -9 -35 -20z"/>
<path d="M8870 5682 c0 -4 9 -16 21 -25 21 -18 23 -57 4 -64 -6 -2 -21 17 -33
42 -23 48 -48 58 -76 29 -20 -19 -20 -44 -2 -70 8 -10 12 -29 10 -40 -6 -25
13 -43 22 -21 3 8 22 18 42 22 80 14 103 56 61 109 -19 24 -49 36 -49 18z
m-25 -62 c19 -37 19 -40 -3 -40 -25 0 -42 19 -42 47 0 33 26 29 45 -7z"/>
<path d="M4690 5640 c-9 -16 -8 -22 4 -26 9 -3 21 -4 28 -1 8 3 5 6 -6 6 -13
1 -17 6 -13 21 7 26 1 26 -13 0z"/>
<path d="M4650 5631 c0 -6 4 -13 10 -16 6 -3 7 1 4 9 -7 18 -14 21 -14 7z"/>
<path d="M5008 5633 c12 -2 32 -2 45 0 12 2 2 4 -23 4 -25 0 -35 -2 -22 -4z"/>
<path d="M4905 5623 c-166 -37 -333 -131 -446 -249 -63 -67 -125 -154 -109
-154 5 0 10 4 10 9 0 5 26 43 58 83 123 154 301 262 502 303 36 7 52 13 35 13
-16 0 -39 -2 -50 -5z"/>
<path d="M4625 5609 c-6 -8 -4 -10 5 -4 9 5 10 2 5 -14 -3 -12 -2 -21 4 -21
18 0 23 22 8 37 -11 12 -16 12 -22 2z"/>
<path d="M4600 5580 c6 -11 12 -20 14 -20 2 0 2 9 -1 20 -3 11 -9 20 -15 20
-5 0 -4 -9 2 -20z"/>
<path d="M4545 5570 c-3 -4 -2 -16 1 -25 6 -15 4 -16 -14 -6 -15 8 -22 8 -22
1 0 -5 8 -10 18 -10 14 0 15 -2 2 -10 -9 -6 -10 -10 -3 -10 6 0 15 5 18 10 4
6 10 8 14 5 5 -2 17 5 27 18 15 17 15 19 2 8 -18 -13 -38 -8 -38 11 0 5 7 8
15 5 8 -4 16 -3 19 1 3 4 -4 8 -14 9 -11 1 -22 -2 -25 -7z"/>
<path d="M8933 5536 c-5 -9 -33 -20 -63 -26 -64 -12 -74 -20 -65 -51 l7 -22
17 21 c19 24 111 43 111 22 0 -6 5 -10 11 -8 6 2 10 8 10 13 0 6 9 13 20 17
24 9 25 28 1 28 -10 0 -23 5 -29 11 -8 8 -13 7 -20 -5z"/>
<path d="M4473 5524 c-3 -8 -1 -20 5 -26 8 -8 9 -4 5 13 -6 22 -5 23 13 9 18
-14 18 -14 5 3 -17 21 -20 21 -28 1z"/>
<path d="M4450 5500 c6 -11 13 -20 16 -20 2 0 0 9 -6 20 -6 11 -13 20 -16 20
-2 0 0 -9 6 -20z"/>
<path d="M6645 5490 c-4 -6 -11 -7 -17 -4 -6 4 -16 1 -22 -7 -6 -8 -17 -14
-25 -14 -8 0 -16 -6 -19 -14 -3 -8 0 -11 6 -7 6 3 14 1 18 -5 4 -8 3 -9 -4 -5
-7 4 -12 0 -13 -11 0 -12 -4 -10 -10 8 -9 24 -12 26 -35 15 -16 -7 -23 -17
-20 -28 2 -10 2 -18 -1 -18 -3 0 -12 8 -19 18 -12 15 -12 15 -7 -6 7 -28 20
-37 37 -23 7 6 16 7 20 3 4 -4 4 6 0 22 -5 21 -4 27 5 22 6 -4 11 -14 11 -22
0 -17 2 -17 35 -2 17 8 24 17 20 27 -5 13 -4 13 6 4 8 -8 18 -9 31 -2 10 5 18
7 18 3 0 -3 7 -1 15 6 11 9 12 17 4 31 -11 21 -24 24 -34 9z m-5 -24 c0 -3 -4
-8 -10 -11 -5 -3 -10 -1 -10 4 0 6 5 11 10 11 6 0 10 -2 10 -4z"/>
<path d="M8842 5427 c-25 -26 -27 -48 -11 -80 19 -35 49 -49 49 -23 0 8 -7 16
-15 20 -19 7 -20 50 -1 65 18 15 22 8 30 -51 6 -38 11 -48 27 -48 29 0 59 36
59 70 0 66 -91 97 -138 47z m108 -26 c11 -22 5 -47 -15 -55 -13 -5 -25 21 -25
57 0 23 27 22 40 -2z"/>
<path d="M6686 5422 c-4 -6 -2 -21 4 -33 15 -28 21 -20 12 16 -5 18 -11 25
-16 17z"/>
<path d="M6447 5413 c-9 -14 4 -54 16 -50 6 2 12 8 14 13 5 14 -23 49 -30 37z"/>
<path d="M6645 5400 c-4 -6 -11 -8 -16 -5 -5 4 -9 1 -9 -5 0 -6 -4 -9 -9 -6
-11 7 -71 -25 -71 -37 0 -5 -5 -5 -11 -1 -8 5 -8 1 0 -14 13 -25 31 -38 31
-22 0 6 5 8 10 5 6 -3 10 5 10 19 0 28 15 42 26 25 4 -8 3 -9 -4 -5 -7 4 -12
1 -12 -9 0 -12 5 -15 18 -10 9 4 23 8 30 8 8 0 10 8 6 21 -6 19 -5 20 7 4 20
-26 45 -8 30 21 -13 23 -26 27 -36 11z"/>
<path d="M2752 5338 c-29 -116 -54 -287 -59 -410 l-6 -138 197 0 196 0 0 80
c0 85 22 257 44 355 8 33 14 60 13 61 -10 4 -358 94 -365 94 -5 0 -14 -19 -20
-42z"/>
<path d="M8930 5293 c-79 -12 -90 -15 -90 -26 0 -10 17 -12 64 -9 58 4 65 2
71 -17 3 -12 13 -21 21 -21 18 0 18 9 -3 32 -9 11 -11 18 -5 18 7 0 12 7 12
15 0 15 -16 17 -70 8z"/>
<path d="M3146 5201 c-24 -116 -35 -196 -42 -310 l-7 -104 168 6 c93 4 291 7
442 7 l273 0 0 58 c1 31 7 87 14 125 l13 67 -51 15 c-40 11 -347 94 -762 204
l-32 9 -16 -77z"/>
<path d="M7196 5210 c-65 -20 -90 -74 -73 -161 5 -30 14 -59 18 -65 22 -28
210 -1 223 32 9 24 -13 136 -31 156 -39 43 -80 55 -137 38z m100 -48 c-4 -3
-14 2 -24 12 -16 18 -16 18 6 6 13 -6 21 -14 18 -18z m-127 -34 c-26 -66 -29
-69 -29 -31 0 25 32 83 46 83 2 0 -6 -24 -17 -52z m85 30 c8 -12 12 -26 8 -32
-4 -7 -8 -4 -10 7 -2 12 -9 16 -19 13 -8 -3 -17 -6 -19 -6 -2 0 -4 -7 -4 -15
0 -8 -5 -15 -11 -15 -7 0 -8 7 -4 18 4 9 10 25 12 35 7 23 29 21 47 -5z m76
-40 c0 -18 -2 -20 -9 -8 -6 8 -7 18 -5 22 9 14 14 9 14 -14z m-3 -53 c7 -21
-37 -55 -70 -55 -27 1 -30 2 -16 13 9 7 19 22 23 35 6 18 14 22 34 20 14 -2
27 -8 29 -13z m-128 -36 c13 -11 21 -22 18 -26 -8 -7 -57 24 -57 37 0 15 12
12 39 -11z"/>
<path d="M2222 5188 c-18 -18 -15 -66 6 -77 43 -23 91 27 65 68 -13 20 -54 26
-71 9z"/>
<path d="M7872 5188 c-13 -13 -16 -47 -4 -64 25 -36 82 -20 82 24 0 33 -16 52
-45 52 -12 0 -26 -5 -33 -12z"/>
<path d="M4307 5155 c-24 -50 -20 -58 4 -12 11 22 19 41 17 43 -3 2 -12 -12
-21 -31z"/>
<path d="M5973 5083 c16 -4 15 -6 -5 -23 l-23 -19 30 0 c17 1 22 3 12 6 -16 4
-15 6 5 23 l23 19 -30 0 c-17 -1 -22 -3 -12 -6z"/>
<path d="M6800 5064 c0 -13 -3 -15 -8 -7 -6 10 -22 10 -70 2 -34 -6 -62 -15
-62 -21 0 -5 -5 -6 -12 -2 -36 22 -87 1 -74 -31 8 -21 36 -19 37 3 0 14 2 14
9 -3 8 -18 9 -18 10 5 l1 25 10 -25 c6 -13 13 -20 17 -15 4 6 14 10 22 10 8 0
17 11 21 25 l6 25 5 -25 5 -25 2 25 c2 24 3 23 16 -8 17 -39 35 -34 36 11 0
30 1 31 10 9 5 -13 6 -29 2 -34 -3 -6 -1 -8 5 -4 12 7 27 65 18 73 -3 4 -6 -2
-6 -13z m-40 -30 c0 -8 -4 -12 -10 -9 -5 3 -10 10 -10 16 0 5 5 9 10 9 6 0 10
-7 10 -16z"/>
<path d="M5968 5024 c6 -3 12 -10 12 -15 0 -6 -4 -7 -10 -4 -5 3 -10 1 -10 -4
0 -17 20 -13 27 5 5 13 8 13 15 2 8 -11 9 -10 6 1 -2 8 -15 15 -29 17 -13 1
-18 0 -11 -2z"/>
<path d="M4251 5004 c0 -11 3 -14 6 -6 3 7 2 16 -1 19 -3 4 -6 -2 -5 -13z"/>
<path d="M4241 4964 c0 -11 3 -14 6 -6 3 7 2 16 -1 19 -3 4 -6 -2 -5 -13z"/>
<path d="M5965 4970 c-7 -12 19 -24 37 -17 7 3 2 6 -12 7 -24 2 -23 3 5 10
l30 8 -27 1 c-15 0 -30 -4 -33 -9z"/>
<path d="M4148 4963 c7 -3 16 -2 19 1 4 3 -2 6 -13 5 -11 0 -14 -3 -6 -6z"/>
<path d="M4141 4933 c0 -13 2 -14 6 -4 5 11 7 11 14 0 7 -12 9 -11 9 1 0 13 1
13 10 0 8 -13 10 -12 10 3 0 12 -8 17 -25 17 -17 0 -25 -5 -24 -17z"/>
<path d="M5972 4909 c0 -21 4 -29 16 -28 11 0 12 3 5 6 -18 7 -16 21 2 25 13
2 12 5 -3 15 -17 10 -19 8 -20 -18z"/>
<path d="M4232 4910 c0 -14 2 -19 5 -12 2 6 2 18 0 25 -3 6 -5 1 -5 -13z"/>
<path d="M4153 4893 c9 -2 23 -2 30 0 6 3 -1 5 -18 5 -16 0 -22 -2 -12 -5z"/>
<path d="M4129 4869 c-10 -6 -3 -9 20 -9 19 0 31 3 27 7 -10 11 -32 12 -47 2z"/>
<path d="M6000 4861 l25 -8 -25 -5 c-24 -5 -24 -5 3 -7 36 -1 32 23 -4 26
l-24 2 25 -8z"/>
<path d="M4223 4780 c0 -47 2 -66 4 -42 2 23 2 61 0 85 -2 23 -4 4 -4 -43z"/>
<path d="M4166 4837 c3 -10 9 -15 12 -12 3 3 0 11 -7 18 -10 9 -11 8 -5 -6z"/>
<path d="M5998 4823 c6 -2 18 -2 25 0 6 3 1 5 -13 5 -14 0 -19 -2 -12 -5z"/>
<path d="M5990 4800 c0 -5 5 -10 11 -10 8 0 7 -6 -2 -17 -13 -16 -12 -17 3 -5
9 8 21 11 25 9 5 -3 9 3 9 14 0 13 -7 19 -23 19 -13 0 -23 -4 -23 -10z"/>
<path d="M4120 4785 c0 -8 4 -15 10 -15 5 0 7 7 4 15 -4 8 -8 15 -10 15 -2 0
-4 -7 -4 -15z"/>
<path d="M4156 4785 c4 -8 8 -15 10 -15 2 0 4 7 4 15 0 8 -4 15 -10 15 -5 0
-7 -7 -4 -15z"/>
<path d="M8700 4663 c0 -209 -43 -515 -106 -768 -233 -925 -832 -1734 -1644
-2219 -243 -146 -534 -276 -795 -357 -66 -20 -119 -41 -119 -45 1 -5 26 -100
55 -212 l54 -202 30 6 c64 13 357 115 485 169 732 309 1360 830 1808 1501 417
625 656 1380 674 2132 l3 102 -222 0 -223 0 0 -107z"/>
<path d="M4127 4740 c-9 -11 -12 -20 -7 -20 6 0 13 7 16 15 4 8 11 15 16 15 6
0 7 -8 3 -17 -5 -14 -3 -15 6 -6 11 11 5 33 -9 33 -4 0 -15 -9 -25 -20z"/>
<path d="M4232 4650 c0 -14 2 -19 5 -12 2 6 2 18 0 25 -3 6 -5 1 -5 -13z"/>
<path d="M6526 4635 c-10 -28 -5 -41 6 -15 l11 25 7 -25 c7 -21 8 -22 10 -5 2
17 3 16 10 -5 l8 -25 1 28 c1 15 -3 27 -8 27 -5 0 -16 3 -24 6 -8 3 -17 -2
-21 -11z"/>
<path d="M7180 4628 c-41 -28 -62 -81 -58 -147 l3 -44 58 -18 c44 -14 72 -17
110 -11 l50 7 15 63 c14 57 14 66 -1 97 -33 69 -117 94 -177 53z m9 -53 c-18
-25 -34 -45 -36 -45 -12 0 1 33 23 59 40 47 49 37 13 -14z m90 8 c8 -18 9 -29
1 -37 -7 -7 -10 -5 -10 6 0 21 -29 32 -36 13 -4 -8 -13 -15 -21 -15 -11 0 -10
7 7 30 26 37 43 38 59 3z m42 1 c22 -25 22 -26 3 -16 -12 6 -24 18 -28 27 -8
21 -3 19 25 -11z m18 -61 c0 -25 -1 -25 -8 -8 -5 11 -7 23 -4 28 8 14 13 7 12
-20z m-109 -66 c11 3 25 14 31 24 12 23 47 25 56 2 11 -28 -30 -52 -79 -46
-45 5 -94 45 -82 65 4 6 17 -2 30 -20 17 -21 30 -29 44 -25z"/>
<path d="M6597 4634 c-14 -14 -7 -44 11 -44 14 0 15 2 2 10 -13 8 -12 10 3 10
10 0 17 5 15 12 -5 14 -22 21 -31 12z"/>
<path d="M6640 4632 c0 -6 -3 -17 -6 -25 -3 -9 3 -16 16 -20 18 -5 21 -2 18
21 -3 24 -28 45 -28 24z"/>
<path d="M6697 4629 c-9 -6 -17 -18 -17 -28 0 -15 8 -19 41 -19 36 -1 40 2 37
21 -2 12 -10 22 -18 22 -8 0 -17 3 -20 7 -3 3 -13 2 -23 -3z m8 -18 c3 -5 1
-12 -5 -16 -5 -3 -10 1 -10 9 0 18 6 21 15 7z m45 -6 c0 -8 -4 -15 -10 -15 -5
0 -10 7 -10 15 0 8 5 15 10 15 6 0 10 -7 10 -15z"/>
<path d="M3401 4613 c0 -6 -10 -9 -21 -6 -11 3 -20 0 -20 -6 0 -7 -8 -8 -22
-2 -14 5 -36 3 -58 -5 -19 -7 -29 -13 -21 -13 11 -1 10 -4 -4 -14 -20 -15 -9
-27 20 -23 11 2 22 14 26 27 l5 24 8 -22 c7 -22 36 -33 36 -14 0 5 25 8 55 6
52 -4 55 -3 55 19 0 12 -3 25 -6 29 -12 11 -34 -5 -35 -27 -1 -16 -3 -14 -9 9
-4 17 -8 25 -9 18z m-1 -28 c0 -2 -6 -5 -13 -8 -8 -3 -14 1 -14 8 0 7 6 11 14
8 7 -3 13 -6 13 -8z m45 6 c3 -5 1 -12 -5 -16 -5 -3 -10 1 -10 9 0 18 6 21 15
7z m-158 -33 c-3 -7 -5 -2 -5 12 0 14 2 19 5 13 2 -7 2 -19 0 -25z m50 10 c-3
-8 -6 -5 -6 6 -1 11 2 17 5 13 3 -3 4 -12 1 -19z"/>
<path d="M6770 4595 c0 -14 6 -22 18 -22 17 0 32 14 32 32 0 6 -5 3 -10 -5 -8
-13 -10 -13 -10 1 0 9 -7 16 -15 16 -9 0 -15 -9 -15 -22z"/>
<path d="M4241 4594 c0 -11 3 -14 6 -6 3 7 2 16 -1 19 -3 4 -6 -2 -5 -13z"/>
<path d="M2859 4575 c-26 -8 -51 -21 -56 -27 -16 -20 2 -135 23 -160 50 -56
133 -58 186 -5 30 31 30 33 25 105 -3 41 -10 79 -16 85 -16 16 -112 17 -162 2z
m122 -34 c31 -25 19 -38 -15 -16 -32 21 -62 12 -70 -21 -5 -20 -12 -25 -33
-22 -54 6 -30 56 33 68 59 12 60 11 85 -9z m39 -80 c0 -26 -37 -88 -46 -78 -5
4 36 107 42 107 2 0 4 -13 4 -29z m-180 -10 c6 -11 6 -22 1 -25 -5 -3 -11 5
-13 19 -6 30 -2 32 12 6z m125 -18 c-4 -10 -10 -26 -12 -35 -7 -24 -26 -23
-48 2 -14 16 -16 23 -7 32 9 9 12 9 12 0 0 -7 9 -12 21 -12 15 0 19 5 15 15
-3 9 0 15 10 15 11 0 14 -5 9 -17z m-74 -50 c13 -15 12 -15 -11 -3 -34 17 -36
20 -18 20 9 0 22 -7 29 -17z"/>
<path d="M6640 4530 c0 -23 5 -30 20 -31 11 -1 26 -2 33 -3 6 -1 17 7 24 19
12 20 12 20 13 -2 0 -24 19 -30 37 -12 8 8 13 7 18 -2 5 -8 4 -10 -3 -5 -7 4
-12 2 -12 -3 0 -6 9 -11 20 -11 15 0 19 5 16 23 -2 13 -10 21 -20 21 -9 -1
-16 5 -16 12 0 11 -5 12 -19 5 -10 -6 -21 -7 -25 -3 -4 3 -11 0 -16 -8 -8 -12
-10 -11 -11 5 -1 14 -4 10 -9 -10 -6 -24 -8 -25 -9 -8 0 12 -10 27 -21 33 -18
10 -20 8 -20 -20z m26 -17 c-10 -10 -19 5 -10 18 6 11 8 11 12 0 2 -7 1 -15
-2 -18z m89 8 c3 -5 1 -12 -5 -16 -5 -3 -10 1 -10 9 0 18 6 21 15 7z"/>
<path d="M2228 4449 c-21 -12 -24 -59 -6 -77 7 -7 21 -12 33 -12 43 0 61 53
29 84 -18 18 -32 20 -56 5z"/>
<path d="M7876 4444 c-32 -31 -14 -84 29 -84 29 0 45 19 45 52 0 42 -45 62
-74 32z"/>
<path d="M3747 4283 c-9 -14 4 -54 16 -50 6 2 12 8 14 13 5 14 -23 49 -30 37z"/>
<path d="M3645 4246 c-21 -18 -31 -22 -37 -13 -6 9 -8 9 -8 -1 0 -25 20 -50
37 -47 10 2 22 4 26 4 4 1 3 10 -3 20 -16 32 -11 38 10 11 16 -21 20 -22 25
-9 4 11 14 15 26 12 14 -4 19 0 19 15 0 28 -20 39 -35 19 -10 -14 -12 -14 -21
0 -8 12 -13 11 -39 -11z m45 -26 c0 -13 -1 -13 -10 0 -5 8 -10 22 -10 30 0 13
1 13 10 0 5 -8 10 -22 10 -30z m-47 -3 c3 -8 -1 -14 -8 -14 -7 0 -11 6 -8 14
3 7 6 13 8 13 2 0 5 -6 8 -13z"/>
<path d="M1217 4250 c-56 -10 -62 -14 -51 -32 5 -7 7 -21 6 -31 -5 -26 23 -63
50 -70 36 -9 79 6 102 36 16 22 18 31 8 52 -10 22 -9 25 8 25 22 0 37 -37 21
-53 -15 -15 -14 -37 3 -37 23 0 40 54 25 82 -6 12 -17 26 -23 30 -14 10 -86 8
-149 -2z m84 -46 c22 -27 -1 -49 -52 -49 -34 0 -44 4 -47 18 -2 10 2 24 8 32
16 20 74 19 91 -1z"/>
<path d="M6571 4212 c-16 -30 -14 -39 5 -16 15 19 15 18 11 -4 -3 -12 -1 -20
3 -17 5 3 11 1 15 -5 3 -5 12 -10 18 -10 7 0 6 4 -3 10 -13 8 -12 10 3 10 9 0
17 7 17 16 0 9 -7 14 -17 12 -10 -2 -23 3 -29 11 -10 12 -13 12 -23 -7z"/>
<path d="M3555 4206 c-16 -12 -17 -17 -7 -37 12 -23 12 -23 7 6 -6 28 -5 29 8
11 20 -27 52 -15 37 14 -13 24 -20 25 -45 6z"/>
<path d="M6403 4185 c-9 -24 1 -27 15 -5 8 13 8 20 2 20 -6 0 -13 -7 -17 -15z"/>
<path d="M3488 4174 c-16 -8 -28 -22 -29 -32 0 -12 -3 -10 -10 7 -5 13 -12 22
-15 19 -2 -3 0 -17 7 -30 8 -19 17 -24 35 -20 13 2 24 8 24 13 0 5 -8 6 -17 3
-11 -4 -14 -3 -7 3 6 4 14 15 17 23 4 12 6 12 6 -2 1 -9 6 -20 11 -23 7 -4 8
3 4 21 -5 19 -4 25 5 20 6 -4 11 -14 11 -23 0 -9 3 -14 6 -10 7 7 -5 47 -14
47 -4 -1 -19 -8 -34 -16z"/>
<path d="M6430 4170 c-13 -24 -13 -33 0 -25 6 3 10 2 10 -3 0 -16 41 -22 47
-6 8 22 25 17 18 -6 -7 -23 13 -28 21 -5 10 24 26 17 19 -7 -5 -20 -4 -21 5
-5 12 19 4 40 -13 34 -7 -2 -19 2 -29 10 -14 13 -17 12 -23 -6 -7 -23 -35 -18
-35 6 0 9 6 13 15 9 8 -3 15 -2 15 3 0 19 -40 19 -50 1z"/>
<path d="M6647 4168 c-5 -21 -5 -21 7 -5 18 23 29 22 16 -2 -12 -22 2 -36 25
-27 20 7 19 42 -1 50 -28 11 -42 6 -47 -16z m49 -25 c-10 -10 -19 5 -10 18 6
11 8 11 12 0 2 -7 1 -15 -2 -18z"/>
<path d="M3393 4139 c-15 -15 11 -43 33 -35 12 4 13 10 4 26 -12 23 -21 25
-37 9z"/>
<path d="M3350 4123 c1 -14 29 -58 30 -46 0 8 7 10 18 6 15 -6 15 -5 3 11 -17
20 -51 40 -51 29z"/>
<path d="M6567 4123 c-14 -13 -7 -43 11 -43 14 0 15 2 2 10 -13 8 -12 10 3 10
9 0 17 7 17 15 0 15 -21 21 -33 8z"/>
<path d="M1288 4095 c-32 -7 -64 -18 -73 -25 -16 -14 -21 -65 -6 -74 5 -3 7
-15 4 -26 -6 -24 6 -25 95 -6 71 15 74 17 64 33 -6 9 -19 9 -52 2 -60 -14 -90
-5 -90 25 0 27 8 32 74 41 49 8 59 14 48 31 -5 7 -26 7 -64 -1z"/>
<path d="M6610 4101 c0 -5 -2 -16 -6 -24 -3 -10 5 -16 27 -21 39 -7 46 -2 28
21 -12 15 -12 16 4 10 11 -4 16 -3 12 4 -4 6 -13 8 -21 5 -7 -3 -16 -1 -19 4
-8 13 -25 13 -25 1z m35 -21 c10 -11 13 -20 7 -20 -6 0 -16 9 -22 20 -6 11 -9
20 -7 20 2 0 12 -9 22 -20z"/>
<path d="M4445 4081 c-3 -10 -3 -26 1 -35 6 -15 7 -15 20 1 19 25 17 41 -2 17
-15 -18 -15 -18 -9 9 6 30 0 37 -10 8z"/>
<path d="M7052 4085 c-26 -11 -39 -28 -62 -79 -17 -36 -27 -71 -24 -78 9 -23
89 -67 143 -79 56 -12 81 -8 81 14 0 7 9 30 20 52 24 47 25 64 5 111 -10 25
-26 40 -57 54 -51 23 -63 24 -106 5z m23 -41 c-16 -14 -38 -30 -48 -35 -16 -9
-17 -8 -8 10 14 25 50 51 71 51 10 -1 5 -9 -15 -26z m76 -22 c4 -21 2 -33 -7
-36 -8 -3 -11 0 -7 9 7 19 -26 32 -37 15 -4 -7 -13 -9 -19 -6 -12 8 38 57 54
52 5 -1 12 -17 16 -34z m49 -26 c0 -6 -7 -2 -15 8 -8 11 -15 25 -15 30 0 6 7
2 15 -8 8 -11 15 -25 15 -30z m-160 -56 c14 -33 49 -41 70 -15 7 8 18 15 25
15 7 0 18 -7 25 -15 10 -12 10 -18 0 -30 -33 -40 -150 10 -150 64 0 22 18 10
30 -19z m160 8 c0 -16 -3 -19 -11 -11 -6 6 -8 16 -5 22 11 17 16 13 16 -11z"/>
<path d="M4504 4058 c10 -8 16 -19 13 -25 -3 -5 0 -10 9 -10 12 0 12 3 1 21
-8 11 -20 22 -28 24 -8 2 -5 -2 5 -10z"/>
<path d="M3067 4040 c-21 -4 -51 -17 -67 -29 -16 -11 -34 -21 -39 -21 -24 0
-28 -34 -9 -84 37 -98 95 -131 172 -98 78 35 94 95 50 188 -27 58 -30 59 -107
44z m73 -56 c0 -12 -5 -12 -30 1 -38 20 -70 3 -70 -37 0 -29 -34 -48 -53 -29
-35 35 69 108 126 89 15 -6 27 -16 27 -24z m33 -87 c-3 -14 -11 -31 -18 -37
-10 -9 -13 -7 -10 7 2 10 7 36 11 58 5 33 8 37 14 19 4 -11 6 -32 3 -47z m-48
-14 c-4 -21 -9 -41 -11 -45 -8 -12 -54 23 -54 41 0 13 2 13 9 2 11 -18 45 -6
38 13 -5 12 3 21 22 25 2 1 0 -16 -4 -36z m-114 -22 c11 -27 -6 -19 -22 11 -8
16 -8 19 2 16 6 -2 16 -14 20 -27z m64 -39 c-7 -8 -45 10 -40 19 4 5 14 3 25
-3 11 -7 17 -14 15 -16z"/>
<path d="M4547 4016 c-15 -12 -16 -14 -2 -20 8 -3 18 -5 21 -5 4 0 11 -5 16
-13 6 -9 7 -5 3 11 -5 17 -4 22 5 16 9 -6 11 -4 5 5 -6 10 -11 10 -20 -3 -7
-9 -15 -14 -18 -10 -4 3 -2 12 4 20 14 17 9 16 -14 -1z"/>
<path d="M6163 3984 c-4 -10 1 -22 12 -30 16 -12 21 -11 37 3 20 18 23 11 7
-19 -6 -12 -7 -18 -1 -14 5 3 13 -1 16 -10 6 -15 8 -15 26 1 11 10 20 13 20 7
0 -6 -4 -14 -10 -17 -6 -4 -5 -11 2 -19 11 -11 15 -10 25 3 6 9 15 13 19 8 4
-4 2 -13 -4 -19 -7 -7 -12 -17 -12 -22 0 -6 5 -4 10 4 8 13 10 13 10 -2 0 -9
4 -19 9 -22 5 -4 7 3 4 14 -3 11 0 20 6 20 11 0 15 -14 11 -35 -1 -5 4 -4 11
3 7 6 18 12 23 12 6 0 5 -5 -2 -12 -7 -7 -12 -17 -12 -22 0 -6 7 -2 15 8 18
23 20 14 4 -16 -6 -12 -7 -18 -1 -14 5 3 13 -2 17 -12 6 -16 7 -16 21 2 7 11
17 17 20 13 4 -4 1 -14 -7 -24 -11 -13 -11 -15 -1 -9 10 6 13 2 10 -15 -4 -31
20 -32 40 -1 14 22 14 23 -6 29 -12 3 -22 12 -22 19 0 17 -22 18 -37 3 -8 -8
-13 -8 -17 0 -4 6 -5 12 -2 12 3 1 11 3 16 4 6 1 13 3 18 4 4 0 -9 11 -28 23
-19 12 -38 21 -42 20 -5 -1 -8 3 -8 8 0 6 -7 10 -16 10 -8 0 -13 4 -10 9 9 14
-25 22 -41 9 -12 -10 -13 -7 -8 13 7 29 -3 40 -62 70 -45 23 -52 23 -60 3z
m28 -1 c-11 -5 -11 -7 0 -14 11 -7 10 -9 -3 -9 -18 0 -23 11 -11 23 3 4 11 7
17 6 6 0 5 -3 -3 -6z m66 -54 c-8 -13 -13 -15 -18 -7 -10 15 -4 25 15 25 11 0
12 -4 3 -18z m209 -187 c-18 -16 -18 -16 -6 6 6 13 14 21 18 18 3 -4 -2 -14
-12 -24z"/>
<path d="M4626 3965 c-9 -26 -7 -32 5 -12 6 10 9 21 6 23 -2 3 -7 -2 -11 -11z"/>
<path d="M4650 3955 c-7 -9 -10 -18 -6 -22 3 -3 6 0 7 8 0 8 4 6 8 -5 7 -19 8
-19 13 2 8 27 -6 37 -22 17z"/>
<path d="M4687 3941 c-4 -17 -3 -21 5 -13 5 5 8 16 6 23 -3 8 -7 3 -11 -10z"/>
<path d="M1301 3929 c-79 -19 -90 -24 -75 -38 10 -10 149 19 153 32 7 20 -10
22 -78 6z"/>
<path d="M4719 3931 c8 -5 10 -14 6 -22 -6 -11 -5 -11 5 -2 14 12 6 33 -13 33
-8 0 -7 -3 2 -9z"/>
<path d="M4758 3923 c6 -2 12 -11 12 -19 0 -9 -5 -12 -12 -8 -7 4 -8 3 -4 -4
4 -8 0 -12 -11 -12 -15 0 -15 -2 -3 -9 10 -7 18 -4 28 10 15 22 10 49 -10 48
-10 0 -10 -2 0 -6z"/>
<path d="M1162 3888 c7 -19 38 -22 38 -4 0 10 -9 16 -21 16 -12 0 -19 -5 -17
-12z"/>
<path d="M3831 3883 c-6 -10 -11 -14 -11 -10 0 8 -13 -1 -51 -35 -10 -10 -23
-18 -29 -18 -5 0 -10 -9 -10 -21 0 -11 -4 -18 -9 -15 -17 11 -62 -19 -60 -39
2 -34 -1 -45 -12 -45 -6 0 -9 9 -6 20 6 24 3 25 -28 4 -26 -17 -32 -38 -15
-49 14 -9 70 17 70 32 0 7 7 13 15 13 14 0 19 14 18 48 -1 17 7 15 23 -5 8
-11 13 -13 14 -5 0 6 7 12 15 12 9 0 15 9 15 23 0 18 2 19 10 7 6 -9 10 -10
10 -3 0 6 -4 15 -10 18 -5 3 -10 11 -10 17 0 6 10 3 21 -8 22 -19 22 -19 10 4
-6 12 -8 22 -4 23 4 0 16 2 26 4 9 2 15 -1 11 -6 -3 -5 -10 -7 -15 -4 -5 4 -9
2 -9 -4 0 -17 18 -22 24 -6 3 8 12 15 21 15 16 0 19 9 9 34 -8 21 -21 20 -33
-1z m29 -14 c0 -6 -4 -7 -10 -4 -5 3 -10 11 -10 16 0 6 5 7 10 4 6 -3 10 -11
10 -16z m-100 -79 c0 -4 -6 -10 -14 -13 -10 -4 -12 0 -9 14 5 18 23 18 23 -1z
m-70 -51 c0 -5 -4 -9 -10 -9 -5 0 -10 7 -10 16 0 8 5 12 10 9 6 -3 10 -10 10
-16z"/>
<path d="M1240 3851 c5 -11 15 -22 22 -24 10 -4 10 -6 1 -6 -14 -1 -19 -31 -5
-31 4 0 38 8 76 18 83 21 106 49 31 38 -26 -4 -53 -10 -61 -13 -7 -2 -21 5
-31 16 -23 27 -48 29 -33 2z"/>
<path d="M3858 3798 c-14 -13 -38 -31 -54 -40 -19 -11 -29 -25 -29 -41 -1 -34
-21 -56 -46 -50 -21 6 -18 16 6 19 8 1 13 -2 9 -7 -3 -5 -3 -9 0 -9 3 0 10 9
16 19 15 29 -4 34 -34 10 -20 -16 -25 -26 -20 -42 6 -20 5 -20 -10 -8 -23 19
-45 -1 -26 -24 16 -19 40 -20 40 0 0 8 7 15 15 15 8 0 23 9 32 19 9 11 21 17
26 14 6 -4 8 0 4 9 -5 15 23 32 46 29 4 -1 3 7 -3 18 -13 26 -13 28 5 28 8 0
12 -4 9 -8 -2 -4 1 -11 7 -15 7 -4 9 -3 6 3 -3 5 9 16 28 23 37 14 43 28 23
48 -16 16 -21 15 -50 -10z m52 -9 c0 -5 -4 -9 -8 -9 -5 0 -9 7 -9 15 0 8 4 12
9 9 4 -3 8 -9 8 -15z m-30 -16 c0 -8 -5 -13 -12 -11 -18 6 -21 25 -3 25 8 0
15 -7 15 -14z m-72 -51 c2 -7 -1 -12 -8 -12 -6 0 -9 4 -6 9 4 5 1 12 -4 14 -6
3 -5 4 2 3 6 -1 14 -8 16 -14z m-108 -93 c0 -5 -4 -9 -8 -9 -5 0 -9 7 -9 15 0
8 4 12 9 9 4 -3 8 -9 8 -15z"/>
<path d="M1312 3790 c-81 -33 -25 -156 62 -134 30 7 66 48 66 75 0 28 -43 72
-65 67 -18 -3 -18 -5 8 -28 30 -26 35 -51 13 -70 -13 -10 -18 -3 -31 44 -17
59 -18 60 -53 46z m34 -77 c6 -28 4 -31 -15 -26 -25 6 -37 39 -20 59 15 19 27
8 35 -33z"/>
<path d="M2410 3719 c-17 -31 -4 -68 25 -75 33 -8 55 11 55 47 0 46 -60 67
-80 28z"/>
<path d="M7688 3729 c-22 -12 -24 -62 -3 -79 22 -18 64 -4 71 24 12 50 -26 80
-68 55z"/>
<path d="M5957 3692 c-16 -17 -15 -20 6 -40 18 -17 26 -19 35 -10 6 6 15 9 19
5 3 -4 -2 -14 -13 -22 -11 -8 -14 -15 -6 -15 6 0 12 -6 12 -13 0 -14 31 -47
43 -47 4 0 7 7 7 16 0 8 5 12 10 9 6 -3 10 -1 10 4 0 6 -5 11 -11 11 -5 0 -7
4 -4 10 3 5 -6 12 -20 16 -13 3 -23 10 -20 14 8 12 -6 41 -16 34 -5 -3 -9 2
-9 10 0 9 -4 16 -10 16 -5 0 -9 -5 -7 -11 1 -6 -5 -14 -13 -16 -13 -4 -13 -3
0 6 13 9 13 11 1 11 -11 0 -9 4 5 15 10 8 14 15 8 15 -6 0 -18 -8 -27 -18z
m88 -92 c-3 -5 -11 -10 -16 -10 -6 0 -7 5 -4 10 3 6 11 10 16 10 6 0 7 -4 4
-10z"/>
<path d="M1380 3643 c-27 -10 -60 -46 -60 -65 0 -22 18 -60 34 -70 21 -14 74
-8 99 12 34 27 41 53 23 88 -20 39 -53 51 -96 35z m64 -39 c21 -20 20 -30 -4
-54 -36 -36 -97 -18 -88 27 3 17 41 43 65 43 6 0 19 -7 27 -16z"/>
<path d="M3641 3635 c0 -5 6 -19 14 -29 8 -11 15 -15 15 -10 0 6 -7 19 -15 30
-8 10 -14 15 -14 9z"/>
<path d="M5903 3604 c-3 -8 0 -21 7 -27 10 -10 12 -8 6 7 -5 15 -4 17 7 8 8
-7 16 -10 19 -7 2 3 5 -2 5 -10 0 -8 -4 -12 -8 -9 -4 2 -11 -1 -15 -7 -4 -8
-3 -9 4 -5 7 4 12 1 12 -8 0 -8 4 -18 10 -21 5 -3 7 0 4 8 -3 8 0 18 7 23 7 4
10 3 5 -4 -3 -6 -2 -14 4 -17 8 -5 7 -12 -2 -23 -10 -14 -10 -15 2 -4 23 20
35 14 15 -8 -10 -11 -13 -20 -7 -20 6 0 14 5 17 10 3 6 11 10 17 10 6 0 4 -8
-5 -18 -16 -17 -15 -20 6 -40 18 -17 26 -19 35 -10 6 6 15 9 19 5 3 -4 -2 -14
-13 -22 -12 -9 -14 -14 -6 -15 7 0 10 -4 7 -10 -3 -5 -1 -10 4 -10 6 0 11 -7
11 -15 0 -8 7 -15 15 -15 8 0 15 7 15 16 0 8 5 12 10 9 6 -3 10 -1 10 4 0 6
-7 11 -15 11 -8 0 -15 -8 -15 -17 0 -15 -2 -16 -9 -3 -6 8 -7 18 -5 22 3 4 0
8 -6 8 -6 0 -8 5 -4 11 4 8 9 7 15 -2 4 -7 11 -10 15 -7 3 4 -1 14 -10 23 -9
9 -16 21 -16 26 0 6 -4 7 -10 4 -5 -3 -10 1 -10 9 0 9 -7 16 -15 16 -8 0 -14
3 -13 8 4 15 -23 52 -34 46 -7 -5 -9 -2 -5 9 4 10 0 20 -11 26 -9 6 -14 11
-10 11 13 0 -26 40 -40 40 -7 0 -15 -7 -19 -16z m111 -136 c-5 -7 -2 -9 8 -6
8 4 15 0 15 -7 0 -10 -5 -11 -19 -4 -16 9 -17 29 -2 29 3 0 2 -5 -2 -12z"/>
<path d="M6772 3588 c-25 -12 -92 -100 -92 -121 0 -28 137 -137 173 -137 12 0
61 55 84 94 56 94 -64 212 -165 164z m68 -25 c-8 -4 -35 -15 -60 -25 l-45 -19
24 25 c18 19 34 26 60 25 20 0 29 -3 21 -6z m50 -25 c0 -24 -12 -58 -20 -58
-4 0 -7 8 -6 18 1 13 -6 17 -26 15 -34 -2 -36 10 -5 25 30 15 57 15 57 0z m39
-68 c1 -13 0 -13 -9 0 -5 8 -9 24 -9 35 l0 20 9 -20 c5 -11 9 -27 9 -35z
m-175 -4 c8 -40 34 -54 65 -34 17 11 23 10 37 -4 9 -9 14 -24 11 -32 -18 -46
-137 19 -137 75 0 40 16 37 24 -5z m166 -25 c0 -6 -4 -13 -10 -16 -5 -3 -10 1
-10 9 0 9 5 16 10 16 6 0 10 -4 10 -9z"/>
<path d="M3340 3550 c-46 -23 -120 -94 -120 -114 0 -13 74 -107 90 -116 51
-27 139 -1 165 50 31 59 17 108 -50 178 l-30 31 -55 -29z m54 -26 c30 -11 17
-27 -17 -21 -39 6 -61 -18 -51 -57 4 -18 1 -27 -13 -34 -25 -13 -43 -4 -43 21
0 28 7 36 50 70 36 28 48 31 74 21z m67 -61 c5 -14 7 -40 3 -57 -7 -31 -7 -31
-15 -6 -8 30 -11 90 -4 90 3 0 10 -12 16 -27z m-34 -99 c-11 -12 -67 8 -67 23
0 11 3 13 13 5 15 -13 42 1 33 17 -4 6 -4 17 1 23 4 8 11 -1 16 -25 5 -21 7
-41 4 -43z m-107 -6 c0 -13 -23 -5 -28 10 -2 7 2 10 12 6 9 -3 16 -11 16 -16z
m65 -18 c4 -6 -5 -10 -20 -10 -15 0 -24 4 -20 10 3 6 12 10 20 10 8 0 17 -4
20 -10z"/>
<path d="M6067 3543 c-11 -10 -8 -33 3 -33 6 0 9 6 8 13 -2 6 5 11 14 11 10
-1 15 2 12 7 -6 11 -28 12 -37 2z"/>
<path d="M4040 3535 c0 -4 10 -15 23 -26 12 -10 17 -18 10 -19 -6 0 -15 5 -18
10 -4 6 -10 8 -15 5 -7 -4 -7 -27 -1 -64 1 -7 51 50 51 57 -1 9 -50 45 -50 37z
m14 -51 c3 -8 2 -12 -4 -9 -6 3 -10 10 -10 16 0 14 7 11 14 -7z"/>
<path d="M6097 3509 c-14 -8 -16 -14 -7 -24 7 -8 8 -20 4 -27 -4 -7 -4 -10 1
-6 4 4 14 3 22 -4 11 -9 18 -8 30 5 18 17 10 53 -9 41 -9 -6 -9 -9 0 -12 17
-5 15 -22 -2 -22 -10 0 -13 9 -10 30 6 32 0 36 -29 19z m18 -9 c-3 -5 -12 -10
-18 -10 -7 0 -6 4 3 10 19 12 23 12 15 0z"/>
<path d="M5630 3498 c-9 -7 -14 -12 -11 -11 9 5 32 -28 26 -38 -4 -6 2 -13 14
-16 12 -3 21 -13 21 -22 0 -14 -2 -14 -11 -1 -9 12 -10 12 -7 1 6 -22 28 -25
28 -4 0 15 2 16 10 3 7 -11 4 -19 -13 -32 -19 -15 -20 -18 -5 -23 9 -4 15 -12
12 -19 -3 -7 2 -19 10 -26 9 -7 13 -16 10 -21 -5 -9 22 -69 32 -69 3 0 3 4 0
9 -3 5 1 11 9 14 11 5 12 1 5 -19 -9 -23 -8 -25 12 -19 22 6 22 6 4 -9 -17
-14 -17 -16 -4 -16 24 0 34 21 16 34 -8 6 -13 17 -10 25 2 7 -2 17 -9 22 -11
7 -11 9 -1 9 10 0 10 3 -2 15 -8 8 -20 15 -27 15 -7 0 -5 7 7 16 10 8 13 13 7
9 -8 -4 -13 0 -13 9 0 10 -9 16 -22 17 l-23 0 22 9 c22 9 23 40 2 40 -5 0 -9
7 -9 15 0 8 -4 15 -10 15 -5 0 -10 9 -10 20 0 11 -4 20 -9 20 -5 0 -8 8 -7 17
1 22 -24 28 -44 11z m40 -8 c0 -5 -7 -10 -16 -10 -8 0 -12 5 -9 10 3 6 10 10
16 10 5 0 9 -4 9 -10z m5 -40 c-3 -5 -12 -10 -18 -10 -7 0 -6 4 3 10 19 12 23
12 15 0z m40 -80 c-27 -12 -43 -12 -25 0 8 5 22 9 30 9 10 0 8 -3 -5 -9z m15
-40 c0 -5 -7 -10 -16 -10 -8 0 -12 5 -9 10 3 6 10 10 16 10 5 0 9 -4 9 -10z
m20 -50 c0 -5 -7 -10 -16 -10 -8 0 -12 5 -9 10 3 6 10 10 16 10 5 0 9 -4 9
-10z"/>
<path d="M3996 3458 c-16 -22 -7 -48 16 -48 6 0 5 7 -2 15 -15 18 0 20 20 3 8
-7 6 -3 -3 8 -14 16 -15 23 -6 26 9 3 10 6 2 11 -7 4 -19 -2 -27 -15z"/>
<path d="M1352 3458 c3 -8 30 -15 67 -18 l63 -5 -46 -34 c-47 -36 -53 -45 -36
-56 13 -8 130 92 130 111 0 11 -20 14 -91 14 -68 0 -90 -3 -87 -12z"/>
<path d="M4100 3449 c0 -5 -6 -7 -12 -3 -7 4 -4 -2 6 -14 22 -25 45 -30 25 -6
-12 15 -11 16 11 9 24 -7 24 -7 5 9 -24 18 -35 20 -35 5z"/>
<path d="M6143 3434 c-3 -8 0 -21 7 -27 10 -10 12 -8 6 7 -5 15 -4 17 8 7 16
-13 32 1 21 19 -9 15 -35 12 -42 -6z"/>
<path d="M3963 3423 c4 -6 0 -16 -8 -23 -12 -10 -13 -16 -4 -26 6 -8 16 -14
22 -14 7 0 7 4 -1 12 -7 7 -12 16 -12 22 0 6 5 5 12 -2 13 -13 38 -16 38 -4 0
4 -12 16 -27 26 -14 11 -23 15 -20 9z"/>
<path d="M4067 3423 c-13 -12 -7 -25 9 -19 10 4 13 2 8 -6 -4 -6 -3 -8 3 -5 5
3 10 0 10 -8 0 -18 -13 -20 -22 -4 -11 17 -57 -32 -51 -54 3 -13 0 -17 -9 -13
-7 2 -19 -1 -25 -9 -9 -11 -6 -16 12 -26 19 -9 21 -9 11 2 -17 17 -17 37 -1
21 15 -15 32 -16 23 -2 -3 6 0 10 7 10 14 0 30 16 60 58 15 22 15 25 -3 43
-21 21 -23 22 -32 12z m-7 -66 c0 -8 -7 -14 -15 -14 -11 0 -12 4 -4 14 6 7 13
13 15 13 2 0 4 -6 4 -13z"/>
<path d="M1497 3363 c-4 -3 -7 -28 -7 -55 0 -34 -4 -48 -14 -48 -18 0 -25 20
-19 53 6 32 -11 36 -27 6 -24 -45 28 -111 70 -89 16 8 20 21 20 60 0 37 4 50
14 50 19 0 29 -31 20 -64 -7 -28 4 -34 24 -14 18 18 14 52 -9 82 -19 24 -57
35 -72 19z"/>
<path d="M3924 3359 c-8 -14 21 -43 35 -35 17 11 13 24 -8 36 -14 7 -22 7 -27
-1z"/>
<path d="M4415 3290 c27 -12 43 -12 25 0 -8 5 -22 9 -30 9 -10 0 -8 -3 5 -9z"/>
<path d="M5290 3283 c0 -15 -2 -16 -10 -3 -5 8 -10 10 -10 4 0 -15 19 -30 47
-36 18 -5 21 -2 20 21 -3 32 -47 45 -47 14z m35 -3 c-3 -5 -10 -10 -16 -10 -5
0 -9 5 -9 10 0 6 7 10 16 10 8 0 12 -4 9 -10z"/>
<path d="M4397 3273 c-4 -3 -2 -12 4 -20 9 -10 8 -13 -4 -13 -17 0 -32 -34
-22 -50 3 -5 14 -10 23 -10 13 0 13 2 -4 16 -18 14 -18 15 6 8 24 -6 25 -6 5
10 -20 17 -20 17 4 10 16 -4 21 -3 17 5 -4 6 -2 11 5 11 7 0 4 7 -7 15 -18 13
-18 14 6 9 20 -5 22 -3 10 5 -17 12 -34 14 -43 4z"/>
<path d="M4491 3261 c-14 -25 -14 -31 0 -31 5 0 8 4 5 9 -3 4 6 6 20 3 21 -4
25 -1 22 14 -5 26 -34 29 -47 5z"/>
<path d="M1552 3210 c-34 -16 -62 -25 -62 -20 0 6 -7 10 -16 10 -10 0 -14 -6
-11 -14 7 -18 -17 -28 -32 -13 -15 15 -27 -1 -15 -21 13 -20 98 -28 91 -9 -2
7 25 26 60 42 43 21 60 34 55 42 -6 9 -23 5 -70 -17z"/>
<path d="M4481 3219 c-19 -8 -21 -12 -11 -24 7 -8 20 -15 28 -15 13 0 12 3 -4
15 -18 13 -18 14 6 9 18 -4 21 -3 11 4 -11 8 -11 10 0 15 8 3 10 5 4 6 -5 0
-21 -5 -34 -10z"/>
<path d="M5302 3186 c3 -37 6 -41 31 -42 25 -1 25 -1 2 3 -14 2 -25 9 -25 15
0 6 10 8 25 4 19 -5 23 -3 19 8 -3 8 -13 12 -22 10 -15 -5 -15 -4 1 9 24 20
21 35 -9 35 -23 0 -25 -3 -22 -42z"/>
<path d="M1591 3149 c-97 -45 -98 -46 -84 -60 7 -7 36 3 93 30 64 31 86 38 97
29 18 -15 30 -1 17 20 -17 26 -33 24 -123 -19z"/>
<path d="M4454 3175 c11 -8 27 -15 35 -15 9 0 3 7 -13 15 -36 19 -47 19 -22 0z"/>
<path d="M6370 3172 c-45 -30 -80 -65 -80 -79 0 -30 50 -110 88 -140 23 -18
43 -33 46 -33 13 0 107 74 116 90 15 28 12 87 -5 120 -29 56 -114 78 -165 42z
m95 -11 c16 -7 10 -10 -27 -16 -57 -9 -83 -2 -48 13 30 13 48 13 75 3z m35
-43 c0 -30 -14 -58 -27 -58 -12 0 -13 3 -5 13 13 15 -1 42 -17 33 -6 -4 -16
-4 -23 0 -8 5 -6 10 8 15 30 12 64 10 64 -3z m-143 -41 c-6 -39 18 -61 56 -52
28 7 50 -15 41 -39 -6 -16 -41 -21 -60 -8 -5 4 -23 24 -38 44 -21 28 -27 44
-22 63 10 38 30 31 23 -8z m173 -9 c0 -23 -3 -29 -11 -21 -6 6 -8 20 -4 32 9
30 15 26 15 -11z m-22 -60 c-2 -6 -10 -14 -16 -16 -7 -2 -10 2 -6 12 7 18 28
22 22 4z"/>
<path d="M3714 3138 c-42 -44 -84 -110 -84 -131 0 -12 55 -61 94 -84 94 -55
211 60 164 162 -12 27 -99 95 -121 95 -7 0 -31 -19 -53 -42z m86 -17 c0 -5
-15 -12 -34 -15 -40 -8 -54 -34 -34 -65 11 -17 10 -23 -4 -37 -9 -9 -24 -14
-32 -11 -46 18 19 137 75 137 16 0 29 -4 29 -9z m68 -80 c-3 -30 -4 -29 -25
26 l-23 57 26 -25 c19 -19 25 -34 22 -58z m-28 -22 c16 -37 4 -53 -34 -43 -29
7 -36 23 -8 20 13 -1 17 6 15 27 -2 36 11 34 27 -4z m-90 -69 c0 -5 -4 -10 -9
-10 -6 0 -13 5 -16 10 -3 6 1 10 9 10 9 0 16 -4 16 -10z m55 -10 c-11 -5 -27
-9 -35 -9 -13 -1 -13 0 0 9 8 5 24 9 35 9 l20 0 -20 -9z"/>
<path d="M4357 3173 c10 -3 9 -9 -3 -20 -14 -15 -14 -17 8 -30 23 -13 23 -13
-4 -7 -23 5 -28 3 -28 -12 0 -16 2 -17 10 -4 8 13 10 12 10 -2 0 -22 26 -24
34 -2 10 25 7 34 -9 34 -8 0 -15 5 -15 11 0 6 9 8 23 4 17 -5 19 -4 7 4 -13
10 -13 11 0 11 13 0 13 1 0 10 -8 5 -22 9 -30 9 -10 0 -11 -2 -3 -6z"/>
<path d="M4897 3150 c-3 -13 0 -20 8 -20 7 0 20 -3 29 -6 9 -4 16 -1 16 6 0 6
-10 15 -22 18 -23 6 -23 6 2 13 l25 7 -26 1 c-19 1 -28 -5 -32 -19z"/>
<path d="M4447 3154 c8 -4 5 -12 -8 -25 -11 -11 -17 -24 -14 -29 4 -6 1 -10
-6 -10 -8 0 -7 -5 2 -17 12 -14 12 -16 0 -8 -10 5 -12 4 -7 -3 4 -7 16 -12 28
-12 17 0 18 2 8 15 -11 13 -10 14 6 8 17 -6 17 -5 5 10 -12 15 -11 17 3 17 9
0 16 8 16 18 0 14 -2 15 -10 2 -7 -10 -10 -11 -10 -2 0 7 7 15 16 19 13 5 13
7 2 14 -7 5 -20 8 -28 8 -9 0 -10 -2 -3 -5z"/>
<path d="M5328 3123 c28 -5 29 -23 1 -23 -11 0 -17 -4 -14 -10 3 -5 16 -10 27
-10 26 0 19 -9 -11 -15 -12 -2 -19 0 -16 6 4 5 1 9 -4 9 -6 0 -11 -7 -11 -15
0 -10 10 -15 29 -15 33 0 46 13 34 33 -4 6 -6 20 -5 30 3 13 -3 17 -25 16 -23
-2 -24 -2 -5 -6z"/>
<path d="M4903 3113 c-7 -3 -13 -9 -13 -14 0 -6 4 -8 8 -5 5 3 9 -1 9 -9 0 -8
-4 -12 -8 -9 -4 2 -10 0 -14 -6 -3 -5 -1 -10 6 -10 8 0 9 -3 0 -14 -17 -20 13
-43 34 -26 12 10 13 16 4 26 -6 8 -7 14 -2 14 5 0 10 12 11 28 1 19 -1 23 -7
13 -8 -12 -10 -12 -12 1 -2 8 -10 13 -16 11z m20 -80 c-7 -2 -19 -2 -25 0 -7
3 -2 5 12 5 14 0 19 -2 13 -5z"/>
<path d="M1596 3074 c-44 -23 -65 -39 -59 -45 11 -11 147 50 145 66 -1 18 -17
14 -86 -21z"/>
<path d="M4820 3100 c24 -8 24 -8 3 -9 -15 -1 -23 -7 -23 -18 0 -13 2 -15 8
-5 6 9 12 6 20 -12 6 -13 8 -26 5 -29 -9 -10 -33 5 -26 16 3 6 1 7 -6 3 -9 -6
-9 -11 0 -23 8 -9 9 -17 3 -21 -6 -4 -13 -14 -17 -23 -4 -12 1 -18 18 -22 18
-3 26 1 31 16 4 13 2 23 -5 25 -9 3 -9 7 0 19 7 8 14 24 15 36 1 12 4 29 6 37
2 10 -6 16 -27 17 -29 2 -29 2 -5 -7z m7 -116 c-3 -3 -12 -4 -19 -1 -8 3 -5 6
6 6 11 1 17 -2 13 -5z"/>
<path d="M1455 3079 c-10 -15 1 -23 20 -15 9 3 13 10 10 16 -8 13 -22 13 -30
-1z"/>
<path d="M2782 3078 c-7 -7 -12 -21 -12 -33 0 -29 19 -45 52 -45 36 0 56 36
39 69 -13 23 -59 29 -79 9z"/>
<path d="M7299 3069 c-18 -34 3 -69 41 -69 22 0 33 6 41 24 16 35 -3 66 -41
66 -20 0 -33 -7 -41 -21z"/>
<path d="M1493 3023 c-7 -3 -13 -11 -13 -19 0 -16 9 -18 27 -6 15 9 3 31 -14
25z"/>
<path d="M1670 3010 c-41 -23 -63 -24 -90 -8 -29 18 -39 -1 -11 -23 13 -10 18
-19 12 -19 -6 0 -8 -7 -5 -14 5 -12 20 -8 80 22 67 33 85 51 58 58 -5 2 -25
-5 -44 -16z"/>
<path d="M4880 3000 c0 -4 11 -10 25 -12 13 -3 22 -2 20 2 -7 11 -45 20 -45
10z"/>
<path d="M1638 2938 c-49 -27 -88 -56 -88 -64 0 -18 4 -18 40 1 27 14 30 14
30 0 0 -9 12 -27 26 -42 20 -20 31 -24 57 -19 69 14 105 95 57 129 -12 8 -20
20 -18 27 6 25 -18 17 -104 -32z m96 -11 c43 -32 -16 -103 -64 -77 -28 15 -25
45 6 69 31 25 35 25 58 8z"/>
<path d="M4882 2968 c-19 -19 -15 -26 19 -33 42 -10 48 2 8 14 -28 9 -29 10
-6 7 22 -3 25 -1 16 10 -14 17 -22 17 -37 2z"/>
<path d="M4222 2891 c-29 -18 -68 -101 -77 -163 -6 -41 -5 -49 11 -54 11 -4
38 -15 62 -26 77 -36 147 -4 172 79 10 32 9 46 -4 76 -13 32 -26 43 -80 67
-75 34 -67 32 -84 21z m48 -50 c0 -5 -13 -14 -30 -21 -33 -14 -41 -49 -15 -70
8 -7 15 -18 15 -25 0 -7 -7 -18 -15 -25 -12 -10 -18 -10 -30 0 -39 33 9 148
63 150 6 0 12 -4 12 -9z m84 -33 c27 -38 18 -57 -10 -23 -14 17 -30 38 -35 48
-9 16 -8 17 10 8 11 -6 27 -21 35 -33z m1 -88 c-9 -14 -64 -17 -69 -4 -3 8 0
11 9 7 19 -7 32 26 15 37 -7 4 -9 13 -5 20 5 7 15 0 31 -21 13 -18 21 -35 19
-39z m-29 -45 c-11 -8 -25 -15 -30 -15 -6 0 -2 7 8 15 11 8 25 15 30 15 6 0 2
-7 -8 -15z m-61 -5 c3 -5 -3 -10 -15 -10 -12 0 -18 5 -15 10 3 6 10 10 15 10
5 0 12 -4 15 -10z"/>
<path d="M5862 2873 l-54 -25 7 -52 c4 -28 15 -64 24 -80 9 -16 22 -39 29 -52
15 -28 33 -30 93 -9 89 32 123 96 90 171 -34 76 -98 92 -189 47z m137 -19 c12
-11 11 -12 -5 -9 -10 2 -37 7 -59 11 -33 5 -36 8 -20 14 24 10 65 2 84 -16z
m-124 -44 c-20 -38 -3 -70 37 -70 29 0 48 -34 29 -53 -35 -35 -108 69 -89 126
6 15 16 27 24 27 12 0 12 -5 -1 -30z m130 10 c25 -9 25 -11 9 -35 -9 -14 -24
-25 -33 -25 -13 0 -13 2 -2 9 18 11 6 45 -13 38 -8 -3 -17 1 -20 9 -6 17 20
19 59 4z m30 -69 c-3 -12 -11 -19 -16 -16 -5 4 -3 14 3 25 15 24 22 19 13 -9z
m-24 -45 c-14 -16 -54 -29 -45 -14 3 5 16 13 28 18 29 12 30 12 17 -4z"/>
<path d="M1770 2821 c0 -6 12 -16 28 -23 28 -14 42 -52 24 -70 -6 -6 -19 7
-36 36 -30 51 -47 57 -70 24 -23 -33 -20 -65 10 -95 20 -20 31 -24 57 -19 72
15 100 84 52 131 -24 25 -65 34 -65 16z m1 -78 c7 -16 15 -32 17 -36 8 -16
-41 -2 -51 14 -11 17 -4 49 11 49 5 0 15 -12 23 -27z"/>
<path d="M5350 2737 c-30 -5 -59 -12 -63 -16 -27 -26 -8 -192 25 -218 20 -16
135 1 160 23 54 49 58 133 7 183 -34 34 -57 39 -129 28z m107 -42 c35 -30 22
-31 -42 0 -49 23 -49 23 -18 24 21 1 42 -8 60 -24z m-107 0 c0 -3 -7 -16 -15
-28 -19 -30 -9 -64 22 -72 19 -4 24 -11 21 -32 -7 -58 -56 -29 -69 42 -7 38
-6 53 6 72 14 21 35 31 35 18z m113 -42 c9 -3 17 -11 17 -19 0 -17 -40 -45
-54 -37 -6 4 -6 8 2 11 7 2 12 13 12 24 0 14 -5 18 -15 14 -9 -3 -15 0 -15 10
0 11 5 14 18 9 9 -4 25 -10 35 -12z m15 -79 c-7 -15 -14 -21 -16 -15 -2 7 2
18 8 26 18 22 21 18 8 -11z m-44 -33 c3 -5 -6 -11 -21 -14 -26 -5 -26 -4 -8 9
22 17 22 17 29 5z"/>
<path d="M4730 2714 c-22 -58 -30 -111 -23 -153 l8 -45 63 -14 c57 -14 66 -14
97 1 69 33 94 117 53 177 -27 40 -71 59 -141 59 -42 1 -49 -2 -57 -25z m148
-20 c12 -8 27 -24 33 -36 9 -17 2 -14 -35 12 -25 18 -46 35 -46 37 0 8 28 1
48 -13z m-95 -19 c-34 -28 -35 -58 -2 -76 23 -12 25 -47 2 -56 -28 -11 -52 30
-46 79 6 50 27 78 57 78 19 0 17 -3 -11 -25z m127 -69 c0 -19 -50 -40 -64 -26
-7 7 -5 10 6 10 21 0 32 29 13 36 -8 4 -15 13 -15 21 0 11 7 10 30 -7 17 -12
30 -27 30 -34z m-15 -56 c-10 -11 -21 -17 -24 -14 -3 3 3 12 13 20 28 20 32
17 11 -6z m-55 -20 c0 -5 -10 -10 -22 -9 -22 0 -22 1 -3 9 11 5 21 9 23 9 1 1
2 -3 2 -9z"/>
<path d="M1836 2685 c-9 -9 -16 -25 -16 -35 0 -13 -5 -17 -15 -14 -25 10 -65
-23 -65 -54 0 -35 57 -115 76 -108 20 8 162 104 168 114 3 4 -12 30 -32 58
-42 54 -85 69 -116 39z m83 -44 c27 -37 26 -45 -3 -65 -24 -15 -26 -15 -45 13
-21 29 -27 62 -14 74 15 15 43 5 62 -22z m-78 -62 l22 -32 -22 -18 c-31 -25
-35 -24 -56 15 -16 29 -17 37 -6 50 20 24 37 19 62 -15z"/>
<path d="M3318 2559 c-26 -15 -23 -65 3 -80 34 -18 69 3 69 40 0 42 -36 62
-72 40z"/>
<path d="M6788 2559 c-26 -15 -23 -65 3 -80 34 -18 69 3 69 40 0 42 -36 62
-72 40z"/>
<path d="M3958 2181 c-41 -34 -1 -93 51 -76 41 13 34 77 -9 88 -11 3 -29 -2
-42 -12z"/>
<path d="M6130 2171 c-15 -30 -12 -49 11 -61 47 -26 101 26 69 65 -18 22 -67
19 -80 -4z"/>
<path d="M4672 1988 c-7 -7 -12 -21 -12 -33 0 -29 19 -45 52 -45 44 0 60 57
24 82 -17 12 -51 9 -64 -4z"/>
<path d="M5416 1984 c-30 -29 -10 -74 32 -74 33 0 52 16 52 45 0 43 -53 61
-84 29z"/>
<path d="M3855 1127 c-17 -44 -24 -53 -48 -55 -31 -4 -32 -28 -1 -25 10 1 22
-4 26 -10 11 -18 23 0 43 63 10 30 20 61 23 68 2 6 -2 12 -9 12 -8 0 -23 -24
-34 -53z"/>
<path d="M3938 1149 c-30 -17 -21 -30 17 -23 38 7 65 -7 65 -33 0 -12 -7 -14
-27 -9 -96 21 -93 22 -93 -17 0 -41 28 -67 71 -67 35 0 69 42 69 84 0 37 -7
49 -37 65 -26 13 -42 14 -65 0z m62 -105 c0 -15 -28 -26 -50 -19 -19 6 -33 32
-25 45 7 12 75 -11 75 -26z"/>
<path d="M4070 1090 c-20 -20 -28 -83 -12 -106 13 -20 54 -36 78 -30 27 7 54
52 54 91 0 34 -33 65 -70 65 -17 0 -39 -9 -50 -20z m78 -12 c15 -15 16 -53 2
-79 -14 -25 -56 -25 -70 1 -26 49 31 115 68 78z"/>
<path d="M4226 976 c-31 -52 -56 -97 -56 -100 0 -3 6 -6 13 -6 7 0 32 34 56
76 24 41 46 72 50 69 3 -4 11 -43 16 -88 7 -61 14 -83 26 -85 14 -2 14 8 0
110 -21 147 -30 149 -105 24z"/>
<path d="M4480 1035 c0 -3 7 -16 16 -29 10 -16 12 -26 5 -31 -13 -8 -15 -45
-2 -45 5 0 12 6 15 13 3 8 10 6 21 -8 15 -19 15 -21 -4 -34 -28 -18 -28 -67
-1 -81 42 -22 92 19 71 59 -9 15 -6 22 15 36 21 13 25 23 22 53 -2 30 -8 38
-31 46 -19 7 -37 7 -57 -1 -17 -6 -30 -7 -30 -2 0 4 -9 13 -20 19 -11 6 -20 8
-20 5z m124 -51 c19 -19 20 -36 4 -52 -19 -19 -36 -14 -52 17 -23 43 13 70 48
35z m-26 -122 c3 -16 -2 -22 -17 -22 -26 0 -36 17 -20 36 16 19 33 13 37 -14z"/>
<path d="M4787 993 c-4 -3 -7 -26 -7 -49 0 -44 -19 -74 -46 -74 -8 0 -14 -4
-14 -10 0 -14 33 -13 48 2 9 9 12 8 12 -5 0 -9 4 -17 9 -17 8 0 21 79 21 133
0 26 -9 34 -23 20z"/>
<path d="M4855 970 c-16 -17 -16 -20 -2 -20 9 0 19 5 22 10 16 26 75 3 75 -28
0 -11 -11 -13 -55 -7 l-55 6 0 -28 c0 -34 8 -46 38 -62 71 -37 134 75 76 133
-22 23 -77 20 -99 -4z m85 -90 c-6 -12 -21 -20 -35 -20 -14 0 -29 8 -35 20
-10 19 -8 20 35 20 43 0 45 -1 35 -20z"/>
<path d="M5000 910 c0 -47 4 -80 10 -80 6 0 10 26 10 58 0 31 3 67 6 80 5 16
2 22 -10 22 -13 0 -16 -13 -16 -80z"/>
<path d="M5089 961 c-24 -24 -29 -38 -29 -76 0 -51 20 -99 45 -109 9 -3 41 -6
71 -6 l54 0 0 110 0 110 -56 0 c-48 0 -59 -4 -85 -29z m111 -87 l0 -87 -42 6
c-52 7 -68 27 -68 88 0 59 18 79 71 79 l39 0 0 -86z"/>
<path d="M5000 785 c0 -8 5 -15 10 -15 6 0 10 7 10 15 0 8 -4 15 -10 15 -5 0
-10 -7 -10 -15z"/>
</g>
</svg>
