<svg xmlns="http://www.w3.org/2000/svg" width="506.925" height="493.005" viewBox="0 0 506.925 493.005">
  <g id="noun-check-box-446241" transform="translate(-103.537 -39.001)">
    <path id="Path_39859" data-name="Path 39859" d="M539.35,242.2a15.512,15.512,0,0,0-15.508,15.512v217.44A25.862,25.862,0,0,1,498,500.992H160.392a25.87,25.87,0,0,1-25.844-25.84V137.562a25.874,25.874,0,0,1,25.844-25.844h268.44a15.512,15.512,0,0,0,0-31.024l-268.44,0a56.924,56.924,0,0,0-56.855,56.863v337.59a56.927,56.927,0,0,0,56.855,56.863H498a56.934,56.934,0,0,0,56.855-56.863V257.713A15.505,15.505,0,0,0,539.345,242.2Z"/>
    <path id="Path_39860" data-name="Path 39860" d="M582.89,34.621a33.611,33.611,0,0,0-47.012,6.957l-225.14,303.36-67.73-60.973a33.6,33.6,0,1,0-44.961,49.941l91.211,82.1a38.683,38.683,0,0,0,25.781,9.9c1.008,0,2.031-.043,3.039-.117a38.657,38.657,0,0,0,26.9-14.273c.273-.34.543-.676.8-1.031l244.06-328.86a33.609,33.609,0,0,0-6.953-47.012Z" transform="translate(14 11)"/>
  </g>
</svg>
