<svg width="24" height="25" viewBox="0 -10 30 45" fill="none"
    xmlns="http://www.w3.org/2000/svg">
<circle cx="12" cy="12.5" r="12" fill="none"/>
<g clip-path="url(#clip0_1829_22393)">
<path fill-rule="evenodd" clip-rule="evenodd" d="M4.85693 9.83333L6.79331 4.5H12.1014L10.1674 9.83333H4.85693ZM6.1422 8.88772H9.56959L10.8161 5.44561H7.38874L6.1422 8.88772ZM8.96937 7.94211H7.42753L7.98907 6.39122H9.53092L8.96937 7.94211Z" fill="#139DBF"/>
<path d="M10.1675 9.83203L8.24561 15.1654H13.5464L15.4828 9.83203H10.1675ZM12.9462 14.2222H9.51877L10.7677 10.7801H11.7093L10.804 13.2741H13.2899L12.9462 14.2222Z" fill="#00A6A6"/>
<path d="M13.5462 15.168L11.6099 20.5013H16.9228L18.8592 15.168H13.5462ZM16.3249 19.5435H15.3834L14.6137 17.4068L13.8391 19.5435H12.8976L14.1441 16.1014H15.0857L15.8554 18.2382L16.6299 16.1014H17.5715L16.3249 19.5435Z" fill="#009966"/>
</g>
<defs>
<clipPath id="clip0_1829_22393">
<rect width="16" height="16" fill="none" transform="translate(4 4.5)"/>
</clipPath>
</defs>
</svg>
