<svg width="14" height="12" viewBox="0 0 14 12" fill="none" xmlns="http://www.w3.org/2000/svg">
<path fill-rule="evenodd" clip-rule="evenodd" d="M5.96374 1.33333C5.74084 1.33333 5.53268 1.44473 5.40904 1.6302L4.86735 2.44273C4.49642 2.99913 3.87196 3.33333 3.20325 3.33333H2.5835C2.21531 3.33333 1.91683 3.63181 1.91683 4V10C1.91683 10.3682 2.21531 10.6667 2.5835 10.6667H11.9168C12.285 10.6667 12.5835 10.3682 12.5835 10V4C12.5835 3.63181 12.285 3.33333 11.9168 3.33333H11.2971C10.6284 3.33333 10.0039 2.99913 9.63297 2.44273L9.09128 1.6302C8.96764 1.44473 8.75949 1.33333 8.53658 1.33333H5.96374ZM4.29964 0.890599C4.67057 0.334202 5.29504 0 5.96374 0H8.53658C9.20529 0 9.82975 0.334202 10.2007 0.8906L10.7424 1.70313C10.866 1.8886 11.0742 2 11.2971 2H11.9168C13.0214 2 13.9168 2.89543 13.9168 4V10C13.9168 11.1046 13.0214 12 11.9168 12H2.5835C1.47893 12 0.583496 11.1046 0.583496 10V4C0.583496 2.89543 1.47893 2 2.5835 2H3.20325C3.42615 2 3.63431 1.8886 3.75795 1.70313L4.29964 0.890599ZM7.25016 5.33333C6.51378 5.33333 5.91683 5.93029 5.91683 6.66667C5.91683 7.40305 6.51378 8 7.25016 8C7.98654 8 8.5835 7.40305 8.5835 6.66667C8.5835 5.93029 7.98654 5.33333 7.25016 5.33333ZM4.5835 6.66667C4.5835 5.19391 5.7774 4 7.25016 4C8.72292 4 9.91683 5.19391 9.91683 6.66667C9.91683 8.13943 8.72292 9.33333 7.25016 9.33333C5.7774 9.33333 4.5835 8.13943 4.5835 6.66667Z" fill="#009966"/>
</svg>
