<svg width="13" height="14" viewBox="0 0 13 14" fill="none" xmlns="http://www.w3.org/2000/svg">
<path fill-rule="evenodd" clip-rule="evenodd" d="M9.54983 3.0322C7.72738 1.20975 4.77261 1.20975 2.95017 3.0322C1.12772 4.85465 1.12772 7.80942 2.95017 9.63186L5.77916 12.4609C6.03932 12.721 6.46059 12.7211 6.72113 12.4606L9.54983 9.63186C11.3723 7.80942 11.3723 4.85465 9.54983 3.0322ZM2.00736 2.08939C4.35051 -0.253755 8.1495 -0.253755 10.4926 2.08939C12.8358 4.43254 12.8358 8.23153 10.4926 10.5747L7.66394 13.4034C6.88307 14.1842 5.61758 14.1849 4.83635 13.4037L2.00736 10.5747C-0.335787 8.23153 -0.335787 4.43254 2.00736 2.08939ZM6.25 4.9987C5.51362 4.9987 4.91667 5.59565 4.91667 6.33203C4.91667 7.06841 5.51362 7.66536 6.25 7.66536C6.98638 7.66536 7.58333 7.06841 7.58333 6.33203C7.58333 5.59565 6.98638 4.9987 6.25 4.9987ZM3.58333 6.33203C3.58333 4.85927 4.77724 3.66536 6.25 3.66536C7.72276 3.66536 8.91667 4.85927 8.91667 6.33203C8.91667 7.80479 7.72276 8.9987 6.25 8.9987C4.77724 8.9987 3.58333 7.80479 3.58333 6.33203Z" fill="#009966"/>
</svg>
